<?xml version="1.0" standalone="no"?>
<!DOCTYPE svg PUBLIC "-//W3C//DTD SVG 20010904//EN"
 "http://www.w3.org/TR/2001/REC-SVG-20010904/DTD/svg10.dtd">
<svg version="1.0" xmlns="http://www.w3.org/2000/svg"
 width="1024.000000pt" height="1024.000000pt" viewBox="0 0 1024.000000 1024.000000"
 preserveAspectRatio="xMidYMid meet">

<g transform="translate(0.000000,1024.000000) scale(0.100000,-0.100000)"
fill="#000000" stroke="none">
<path d="M0 5120 l0 -5120 5120 0 5120 0 0 5120 0 5120 -5120 0 -5120 0 0
-5120z m2843 2797 c33 -14 495 -360 2045 -1529 183 -138 183 -138 237 -138
l54 0 353 266 c194 147 556 419 803 605 248 187 583 439 746 561 162 123 307
229 322 236 40 18 127 15 165 -5 17 -10 228 -159 467 -332 409 -296 436 -317
460 -365 l25 -50 0 -2000 c0 -1929 -1 -2002 -19 -2041 -22 -48 -56 -80 -221
-212 -175 -140 -230 -179 -269 -192 -83 -28 -136 -7 -301 118 -255 193 -339
263 -357 300 -17 34 -18 118 -23 1584 -5 1518 -5 1549 -24 1563 -11 8 -28 14
-38 14 -10 0 -91 -58 -180 -128 -90 -70 -327 -254 -528 -409 -1007 -776 -1308
-1006 -1345 -1025 -59 -31 -140 -29 -196 5 -38 22 -345 255 -1129 856 -113 87
-272 209 -355 272 -82 63 -239 184 -348 268 -109 83 -205 155 -213 158 -8 3
-24 -3 -34 -12 -20 -18 -20 -40 -20 -1545 0 -1697 5 -1583 -68 -1652 -77 -74
-472 -357 -514 -369 -47 -12 -106 -6 -148 16 -32 16 -322 246 -384 304 -21 20
-47 54 -57 76 -18 39 -19 112 -19 2050 0 1935 1 2011 19 2050 10 22 31 52 47
66 42 38 842 610 884 631 41 21 118 23 163 5z"/>
</g>
</svg>
